<svg xmlns="http://www.w3.org/2000/svg" width="850" height="150"><g fill="#FFF"><path d="M118.71 15.083h-5.4c-.25 0-.584.087-.584.332 0 .256.25.333.583.333h5.4c.334 0 .584-.08.584-.333 0-.077-.25-.332-.583-.332zM118.46 16.25h-4.9c-.418.08-.584.246-.584.334 0 .15.1.24.25.282v1.376c0 .5.328.833.83.833h3.91c.495 0 .83-.333.83-.833v-1.376c.148-.042.25-.132.25-.282-.002-.088-.252-.333-.586-.333zM116.47 10.265h-.085s-.083.088-.25.088c-.084 0-.084 0-.25-.088h-.083l-1.663-1.662v5.734h3.992V8.603l-1.663 1.662z"/><path d="M122.867 6.94c.084-3.822-2.992-6.898-6.814-6.898-3.577 0-6.653 3.077-6.653 6.898 0 2.246 1.085 4.327 2.83 5.572-.082.245-.25.5-.25.746 0 .58.497 1.08 1.08 1.08h.417V7.773c0-.084.167-.25.167-.25h.495c.085 0 .085.084.085.25l1.912 1.91s1.746-1.826 1.83-1.91c0-.084.084-.25.084-.25h.497c.084 0 .167.084.167.25v6.564h.334c.583 0 1.08-.5 1.08-1.08 0-.246-.083-.5-.25-.58 1.742-1.332 2.99-3.324 2.99-5.737z"/></g><path fill="#FFF" d="M143.902 8.504h3.574c.475 0 .952.35.952.833v1.31c0 .472-.355.836-.952.836h-3.574c-.476 0-.95-.365-.95-.836v-1.31c.116-.483.474-.833.95-.833zM153.91.874c-.714 0-1.31.48-1.31 1.196L150.572.633c-.477-.468-.834-.59-1.194-.59-.356 0-.712.122-1.19.59l-9.056 6.08s-.83 1.79.718 1.79h.476v8.814c0 .952.832 1.784 1.785 1.784h1.313V14.7c0-.48.355-.837.952-.837h2.742c.478 0 .954.358.954.838V19.1h8.576c.952 0 1.79-.833 1.79-1.783V8.504h.478c1.55 0 .712-1.792.712-1.792l-2.503-1.426V2.31c0-.722-.594-1.313-1.306-1.313l-1.91-.122zm-2.263 7.63h3.218c.477 0 .954.35.954.833v1.31c0 .472-.36.836-.955.836h-3.218c-.476 0-.95-.365-.95-.836v-1.31c0-.483.473-.833.95-.833zm0 5.24h3.218c.477 0 .954.353.954.837v1.307c0 .477-.36.838-.955.838h-3.218c-.476 0-.95-.36-.95-.838V14.58c0-.362.473-.836.95-.836zM178.937 3.614c0 1.91 1.667 3.58 3.693 3.58 2.024 0 3.694-1.553 3.694-3.58 0-1.91-1.67-3.57-3.694-3.57-2.025 0-3.693 1.543-3.693 3.57zm-2.025 15.254v-4.41s.835.357.835 1.663v2.98h9.77v-2.98c0-1.305.833-1.662.833-1.662v4.41h1.428v-6.555c-1.903-4.413-7.147-4.05-7.147-4.05s-5.122-.242-7.147 4.05v6.555h1.43zm2.265-4.89s-.596-2.143 1.428-2.495c1.074-.122 1.67.235 1.907.71.36-.36.836-.832 1.908-.71 2.027.235 1.43 2.495 1.43 2.495s-.596 1.554-3.338 3.458c-2.62-1.903-3.335-3.458-3.335-3.458zM256.067.323c.474-.47 1.9-.353 2.256.363.237.473.594 1.545.237 1.896-1.425 1.548-3.325 3.565-4.752 5.114.833 3.323 1.662 6.302 2.496 9.628-.475.59-1.07 1.19-1.663 1.778-1.426-2.844-3.208-5.104-4.635-7.96-.95 1.067-1.9 1.55-2.853 2.616-.12.122-.356.357-.235.59.117.84-.358 1.668-.24 2.378-.474.48-.832.954-1.306 1.305-.476-1.068-.476-2.134-1.07-3.083-.948-.6-2.376-.6-3.325-1.067.474-.482.828-.836 1.188-1.31.83 0 2.136-.24 3.088-.24 1.073-1.187 1.667-2.734 2.735-3.922-2.615-1.54-5.822-2.494-8.44-4.035.595-.6 1.07-1.67 1.666-2.257 3.21.948 6.896 2.257 10.222 3.205 1.188-1.432 3.21-3.446 4.635-4.997zM208.838 4.51c.36-1.675.955-1.91 2.032-2.63 1.675-1.198 2.39.72 2.39 2.63s-1.072 3.586-2.39 3.586c-1.316 0-2.393-1.677-2.032-3.586zm5.98-.954c.36-1.676 1.793-2.875 2.99-3.352 1.912-.72 2.87 1.072 2.27 2.988-.715 1.92-2.628 4.065-3.827 3.47-1.314-.594-1.91-1.198-1.43-3.106zm4.306 3.467c.838-1.914 2.75-2.396 4.064-2.75 2.154-.484 2.872 1.672 1.674 3.467-.594.838-3.945 2.984-5.26 2.27-.955-.473-1.198-1.312-.478-2.987zm-.6 6.7c.717-1.675 2.392-2.16 3.47-2.51 1.794-.488 2.51 1.55 1.436 3.103-.477.714-3.35 2.755-4.548 2.036-.714-.366-.956-1.08-.357-2.63zm-11.84-2.998c.36-.716 6.098-2.027 7.774-1.91.36 0 2.153.118 2.748 2.99.125.596 0 5.14-.356 5.505-.24.474-1.554 1.675-3.11 1.792-1.912.117-2.632-3.585-2.632-3.585s-2.27-.487-3.945-1.325c-.955-.35-1.08-1.91-.48-3.467zM87.527 9.978c-1.327.357-1.687 2.413-.362 3.14 1.09.724 2.776 0 2.776-1.332.124-1.08-1.206-2.172-2.413-1.808zm-10.14 0c-1.327.24-1.81 2.17-.722 3.016.964.965 2.776.36 3.02-.963.24-1.09-1.09-2.416-2.297-2.052zm-1.083-6.403c-.604 1.453-1.33 2.783-1.57 4.346 2.05.125 12.916.125 16.296 0-.365-1.442-.968-2.65-1.45-3.974-.245-.487-.36-1.092-.848-1.454-.604-.48-1.326-.358-1.93-.358H77.99c-.84 0-1.444.72-1.686 1.44zm-.604-.96c.48-.97 1.688-1.454 2.776-1.454h8.812c1.206 0 2.413.604 2.896 1.694.722 1.325 1.208 2.778 1.812 4.107.48.96 1.325 1.687 1.568 2.77.243 1.092.243 2.3 0 3.507-.244.963-1.327 1.442-1.812 2.295-.12.726-.12 1.446-.242 2.05-.362.485-2.653.485-3.138.237-.36-.606-.243-1.933-1.325-1.933-2.054-.117-7.85-.117-8.815.12-.604.483-.48 1.334-1.084 1.813-.967.248-2.173.248-3.016-.237-.124-.846.24-1.93-.487-2.532-.604-.725-1.446-1.207-1.568-2.3-.12-1.44-.12-3.135.848-4.344 1.323-1.692 1.687-3.857 2.775-5.79zM284.64 3.62c1.19 0 2.5 0 3.69.12.354 0 1.668 1.9 2.498 2.973.12.12 0 .483-.594.483h-5.592c-.123-.122 0-2.385 0-3.577zm6.307 8.098c1.43 0 2.622 1.07 2.74 2.494.355 0 .595-.117.952-.117.234 0 .59-.35.59-.955V9.575c0-.48-.473-1.07-.71-1.188-.716-.604-1.43-1.07-2.144-1.674-1.07-1.306-2.023-2.73-3.212-3.923-.358-.364-.834-.364-1.31-.364H270.83c-.236 0-.833.364-.833.837v7.977c-.12 0-.473.12-.473.596v1.424c0 .953.473.835.83.953.597.12 1.31.12 1.906.24 0-1.428 1.19-2.616 2.74-2.616 1.543 0 2.736 1.188 2.736 2.616v.242h10.594v-.242c-.12-1.546 1.07-2.735 2.617-2.735zm-18.334 2.734c0 1.313 1.073 2.263 2.265 2.263 1.308 0 2.262-1.07 2.262-2.263 0-1.312-1.07-2.263-2.262-2.263s-2.265.95-2.265 2.262zm1.192 0c0-.59.476-1.07 1.072-1.07.594 0 1.07.48 1.07 1.07 0 .598-.476 1.07-1.07 1.07-.595 0-1.072-.472-1.072-1.07zm14.878 0c0 1.313 1.072 2.263 2.263 2.263 1.312 0 2.262-1.07 2.262-2.263 0-1.312-1.07-2.263-2.262-2.263-1.31 0-2.263.95-2.263 2.262zm1.19 0c0-.59.478-1.07 1.072-1.07.596 0 1.07.48 1.07 1.07 0 .598-.474 1.07-1.07 1.07-.593 0-1.07-.472-1.07-1.07zM53.568 13.026c0 2.352 1.94 4.295 4.292 4.295 2.432 0 4.53-2.054 4.406-4.516-.124-2.476-2.26-4.094-4.633-4.067-.604.008-.86.27-1.202-.24-.038-.06-.242-.28-.238-.356.17-.236.415-.434.72-.443.674-.02.698.783 1.308.686-.215-.638-.357-.66.25-.96.483-.24 1.08-.853 1.107-1.412.017-.354-.453-.883-.747-1.06-.298-.177-.616-.082-.885-.283-.16-.12-.054-.266.028-.398.184-.293.104-.322-.113-.54-1.1-1.09-2.478-1.844-4.052-1.91-.4-.015-1.485-.06-1.79.243-.267.27-.594.374-.596.83-.002.584.313.604.776.604.815 0 1.62.06 2.386.38.372.157.455.438.875.517.478.09.25.895.042 1.125-.2.22-.772.156-1.057.142-.352-.017-.626-.33-.94-.463-.814-.348-1.73-.45-2.61-.445-1.59.008-2.84 1.047-3.724 2.304-.09.128-.29.607-.454.607-.367 0-.73-.346-1.057-.51-.938-.475-2.06-.94-3.126-.917-1.365.03-2.91.187-4.136.85-.585.318-1.24.53-1.324 1.208-.02.162-.128.47-.034.613.145.222.254.406.32.665.27-.283.626-.498.95-.713.38-.258.338-.27.61.058.416.5.392.39.94.053l-.593-.59c1.57-.785 3.392-1.045 5.007-.24l-.5.665c-.246.327-.207.3.022.65l.507-.725c.318-.456.273-.553.79-.176.56.408 1.185.91 1.23 1.626.026.39.05.778.077 1.167.03.446-.15.075-.34.37-.225.354-.09 1.356-.12 1.79h5.607c.153 0 .417-1.667.54-1.98.29-.75.724-1.437 1.228-2.062.434-.54.713-.953 1.476-.873.66.07.722.2 1.048.744-1.332.716-2.27 2.16-2.27 3.686 0 2.39 0-1.543 0 0zm1.673 0c0-.928.562-1.893 1.43-2.262.162.287 1.117 2.366 1.72 1.945.643-.448-.65-1.902-.888-2.298 1.114 0 2.145.363 2.746 1.365.56.937.424 2.138-.293 2.953-1.598 1.808-4.714.75-4.714-1.704 0-.954 0 1.556 0 0zm-9.777-.236c0 .275.007.584-.12.837.718-.35.657-2-.117-2.265.117.467.237.942.237 1.428zm-3.694-.352c0 .487-.19.896.308 1.044l.858.256c.09.026.11.612.126.713.054.37-.72.658-1.014.742-.52.15-1.094.138-1.607-.034-.934-.315-1.565-1.168-1.644-2.145-.178-2.246 2.63-3.637 4.253-1.993.325.33.242.47.158.888-.02.11-.456.113-.554.128-.136.023-1.463.223-.885.402zm-.36 4.287c1.83 0 3.568-1.27 3.934-3.098-.154.153-.808.225-.842-.063l-.12-1.03c-.095-.802-.257-1.172.726-1.172-1.04-3.127-5.533-3.226-7.166-.604-1.64 2.633.458 5.967 3.468 5.967zM359.96 3.146h-22.166c-.49 0-.89.393-.89.883v11.08c0 .493.4.893.89.893h22.167c.49 0 .882-.4.882-.892V4.03c0-.49-.39-.884-.88-.884zM345.63 15.11h-5.963c.213-.236.346-.543.346-.88 0-.74-.598-1.332-1.33-1.332-.34 0-.65.13-.884.34V5.903c.233.21.545.34.884.34.732 0 1.33-.587 1.33-1.325 0-.345-.132-.652-.345-.89h5.963c-1.898 1.125-3.18 3.18-3.18 5.547 0 2.358 1.282 4.423 3.18 5.536zm5.58-1.902h-4.63v-.92c.715-.746.915-1.375.816-2.323h-.91V9.02h.74c-.082-.328-.18-.77-.18-1.197 0-1.462.85-2.085 2.173-2.085.646 0 1.344.188 1.84.448l-.144.765c-.513-.126-.943-.174-1.27-.174-.904 0-1.114.373-1.114 1.022 0 .424.097.806.186 1.222h1.747v.947h-1.62c.078.9-.028 1.524-.6 2.125h2.967v1.12zm8.753.03c-.234-.21-.543-.34-.892-.34-.73 0-1.325.592-1.325 1.333 0 .336.135.643.346.882h-5.97c1.902-1.115 3.186-3.18 3.186-5.536 0-2.367-1.284-4.423-3.185-5.546h5.97c-.212.237-.347.544-.347.89 0 .737.594 1.325 1.325 1.325.35 0 .658-.13.893-.34v7.334zM326.488 1.315h-21.724c-.738 0-1.33.598-1.33 1.328v1.964h24.378V2.643c.002-.73-.59-1.328-1.324-1.328zM303.435 16.5c0 .73.592 1.332 1.33 1.332h21.724c.734 0 1.325-.6 1.325-1.333V7.857h-24.378l-.002 8.64zm7.13-3.215h7.534v.44h-7.534v-.44zm-4.435 0h3.102v.44h-3.102v-.44zM378.464 3.615c0 1.913 1.662 3.575 3.656 3.575 1.996 0 3.658-1.578 3.658-3.575 0-1.912-1.662-3.574-3.658-3.574-1.994.002-3.656 1.58-3.656 3.575zm-2.08 15.212V14.42s.832.334.832 1.663v2.994h9.81v-2.994c0-1.33.83-1.662.83-1.662v4.407h1.413V12.26c-1.914-4.404-7.15-4.072-7.15-4.072s-5.154-.25-7.15 4.073v6.567h1.415zM420.83 8.192v-2.73c0-3.005-2.458-5.46-5.46-5.46-3.003 0-5.46 2.456-5.46 5.46v2.73h-1.367v10.926h13.654V8.192h-1.367zm-4.095 8.88h-2.73l.545-3.62c-.546-.276-.888-.822-.888-1.505 0-.956.75-1.71 1.708-1.71.957 0 1.71.752 1.71 1.71 0 .614-.342 1.16-.89 1.505l.545 3.62zm2.047-8.88h-6.827v-2.73c0-1.91 1.5-3.414 3.41-3.414 1.916 0 3.416 1.504 3.416 3.414l.002 2.73zM437.813 5.236v10.432c0 1.034.845 1.88 1.877 1.88h17.855c1.033 0 1.88-.846 1.88-1.88V5.143l-10.807 7.093-10.805-7zm21.61-1.786c0-1.033-.845-1.88-1.878-1.88H439.69c-1.032 0-1.877.847-1.877 1.88l10.806 6.767 10.804-6.767zM3.59 10.42l8.834-6.5 8.833 6.165V20.42h-6.833v-6h-4v6H3.59v-10zM12.443 0L6.258 4.53V1.25H2.59v5.962L0 9.114l1.182 1.612 11.225-8.22 10.57 8.202 1.228-1.58L12.442 0z"/></svg>